<?xml version="1.0" encoding="UTF-8"?>
<!DOCTYPE svg PUBLIC "-//W3C//DTD SVG 1.1//EN" "http://www.w3.org/Graphics/SVG/1.1/DTD/svg11.dtd">
<svg width="209mm" height="117mm" viewBox="0 0 20900 11700" version="1.1" xmlns="http://www.w3.org/2000/svg" xmlns:xlink="http://www.w3.org/1999/xlink" stroke-width="28.222" stroke-linejoin="round" xml:space="preserve">
 <path fill="rgb(255,255,255)" stroke="none" d="M 10442,11746 L 0,11746 0,0 20883,0 20883,11746 10442,11746 Z"/>
 <path fill="none" stroke="rgb(179,179,179)" stroke-linejoin="round" d="M 10320,9884 L 2340,9884 2340,2499 18300,2499 18300,9884 10320,9884 Z"/>
 <path fill="none" stroke="rgb(179,179,179)" stroke-linejoin="round" d="M 18300,9883 L 2340,9883"/>
 <path fill="none" stroke="rgb(179,179,179)" stroke-linejoin="round" d="M 18300,8959 L 2340,8959"/>
 <path fill="none" stroke="rgb(179,179,179)" stroke-linejoin="round" d="M 18300,8036 L 2340,8036"/>
 <path fill="none" stroke="rgb(179,179,179)" stroke-linejoin="round" d="M 18300,7113 L 2340,7113"/>
 <path fill="none" stroke="rgb(179,179,179)" stroke-linejoin="round" d="M 18300,6190 L 2340,6190"/>
 <path fill="none" stroke="rgb(179,179,179)" stroke-linejoin="round" d="M 18300,5267 L 2340,5267"/>
 <path fill="none" stroke="rgb(179,179,179)" stroke-linejoin="round" d="M 18300,4344 L 2340,4344"/>
 <path fill="none" stroke="rgb(179,179,179)" stroke-linejoin="round" d="M 18300,3421 L 2340,3421"/>
 <path fill="none" stroke="rgb(179,179,179)" stroke-linejoin="round" d="M 18300,2498 L 2340,2498"/>
 <path fill="none" stroke="rgb(179,179,179)" stroke-linejoin="round" d="M 2340,10033 L 2340,9883"/>
 <path fill="none" stroke="rgb(179,179,179)" stroke-linejoin="round" d="M 2340,10033 L 2340,9883"/>
 <path fill="none" stroke="rgb(179,179,179)" stroke-linejoin="round" d="M 2809,10033 L 2809,9883"/>
 <path fill="none" stroke="rgb(179,179,179)" stroke-linejoin="round" d="M 2809,10033 L 2809,9883"/>
 <path fill="none" stroke="rgb(179,179,179)" stroke-linejoin="round" d="M 3278,10033 L 3278,9883"/>
 <path fill="none" stroke="rgb(179,179,179)" stroke-linejoin="round" d="M 3278,10033 L 3278,9883"/>
 <path fill="none" stroke="rgb(179,179,179)" stroke-linejoin="round" d="M 3748,10033 L 3748,9883"/>
 <path fill="none" stroke="rgb(179,179,179)" stroke-linejoin="round" d="M 3748,10033 L 3748,9883"/>
 <path fill="none" stroke="rgb(179,179,179)" stroke-linejoin="round" d="M 4217,10033 L 4217,9883"/>
 <path fill="none" stroke="rgb(179,179,179)" stroke-linejoin="round" d="M 4217,10033 L 4217,9883"/>
 <path fill="none" stroke="rgb(179,179,179)" stroke-linejoin="round" d="M 4687,10033 L 4687,9883"/>
 <path fill="none" stroke="rgb(179,179,179)" stroke-linejoin="round" d="M 4687,10033 L 4687,9883"/>
 <path fill="none" stroke="rgb(179,179,179)" stroke-linejoin="round" d="M 5156,10033 L 5156,9883"/>
 <path fill="none" stroke="rgb(179,179,179)" stroke-linejoin="round" d="M 5156,10033 L 5156,9883"/>
 <path fill="none" stroke="rgb(179,179,179)" stroke-linejoin="round" d="M 5626,10033 L 5626,9883"/>
 <path fill="none" stroke="rgb(179,179,179)" stroke-linejoin="round" d="M 5626,10033 L 5626,9883"/>
 <path fill="none" stroke="rgb(179,179,179)" stroke-linejoin="round" d="M 6095,10033 L 6095,9883"/>
 <path fill="none" stroke="rgb(179,179,179)" stroke-linejoin="round" d="M 6095,10033 L 6095,9883"/>
 <path fill="none" stroke="rgb(179,179,179)" stroke-linejoin="round" d="M 6564,10033 L 6564,9883"/>
 <path fill="none" stroke="rgb(179,179,179)" stroke-linejoin="round" d="M 6564,10033 L 6564,9883"/>
 <path fill="none" stroke="rgb(179,179,179)" stroke-linejoin="round" d="M 7034,10033 L 7034,9883"/>
 <path fill="none" stroke="rgb(179,179,179)" stroke-linejoin="round" d="M 7034,10033 L 7034,9883"/>
 <path fill="none" stroke="rgb(179,179,179)" stroke-linejoin="round" d="M 7503,10033 L 7503,9883"/>
 <path fill="none" stroke="rgb(179,179,179)" stroke-linejoin="round" d="M 7503,10033 L 7503,9883"/>
 <path fill="none" stroke="rgb(179,179,179)" stroke-linejoin="round" d="M 7973,10033 L 7973,9883"/>
 <path fill="none" stroke="rgb(179,179,179)" stroke-linejoin="round" d="M 7973,10033 L 7973,9883"/>
 <path fill="none" stroke="rgb(179,179,179)" stroke-linejoin="round" d="M 8442,10033 L 8442,9883"/>
 <path fill="none" stroke="rgb(179,179,179)" stroke-linejoin="round" d="M 8442,10033 L 8442,9883"/>
 <path fill="none" stroke="rgb(179,179,179)" stroke-linejoin="round" d="M 8912,10033 L 8912,9883"/>
 <path fill="none" stroke="rgb(179,179,179)" stroke-linejoin="round" d="M 8912,10033 L 8912,9883"/>
 <path fill="none" stroke="rgb(179,179,179)" stroke-linejoin="round" d="M 9381,10033 L 9381,9883"/>
 <path fill="none" stroke="rgb(179,179,179)" stroke-linejoin="round" d="M 9381,10033 L 9381,9883"/>
 <path fill="none" stroke="rgb(179,179,179)" stroke-linejoin="round" d="M 9851,10033 L 9851,9883"/>
 <path fill="none" stroke="rgb(179,179,179)" stroke-linejoin="round" d="M 9851,10033 L 9851,9883"/>
 <path fill="none" stroke="rgb(179,179,179)" stroke-linejoin="round" d="M 10320,10033 L 10320,9883"/>
 <path fill="none" stroke="rgb(179,179,179)" stroke-linejoin="round" d="M 10320,10033 L 10320,9883"/>
 <path fill="none" stroke="rgb(179,179,179)" stroke-linejoin="round" d="M 10788,10033 L 10788,9883"/>
 <path fill="none" stroke="rgb(179,179,179)" stroke-linejoin="round" d="M 10788,10033 L 10788,9883"/>
 <path fill="none" stroke="rgb(179,179,179)" stroke-linejoin="round" d="M 11258,10033 L 11258,9883"/>
 <path fill="none" stroke="rgb(179,179,179)" stroke-linejoin="round" d="M 11258,10033 L 11258,9883"/>
 <path fill="none" stroke="rgb(179,179,179)" stroke-linejoin="round" d="M 11727,10033 L 11727,9883"/>
 <path fill="none" stroke="rgb(179,179,179)" stroke-linejoin="round" d="M 11727,10033 L 11727,9883"/>
 <path fill="none" stroke="rgb(179,179,179)" stroke-linejoin="round" d="M 12197,10033 L 12197,9883"/>
 <path fill="none" stroke="rgb(179,179,179)" stroke-linejoin="round" d="M 12197,10033 L 12197,9883"/>
 <path fill="none" stroke="rgb(179,179,179)" stroke-linejoin="round" d="M 12666,10033 L 12666,9883"/>
 <path fill="none" stroke="rgb(179,179,179)" stroke-linejoin="round" d="M 12666,10033 L 12666,9883"/>
 <path fill="none" stroke="rgb(179,179,179)" stroke-linejoin="round" d="M 13136,10033 L 13136,9883"/>
 <path fill="none" stroke="rgb(179,179,179)" stroke-linejoin="round" d="M 13136,10033 L 13136,9883"/>
 <path fill="none" stroke="rgb(179,179,179)" stroke-linejoin="round" d="M 13605,10033 L 13605,9883"/>
 <path fill="none" stroke="rgb(179,179,179)" stroke-linejoin="round" d="M 13605,10033 L 13605,9883"/>
 <path fill="none" stroke="rgb(179,179,179)" stroke-linejoin="round" d="M 14075,10033 L 14075,9883"/>
 <path fill="none" stroke="rgb(179,179,179)" stroke-linejoin="round" d="M 14075,10033 L 14075,9883"/>
 <path fill="none" stroke="rgb(179,179,179)" stroke-linejoin="round" d="M 14544,10033 L 14544,9883"/>
 <path fill="none" stroke="rgb(179,179,179)" stroke-linejoin="round" d="M 14544,10033 L 14544,9883"/>
 <path fill="none" stroke="rgb(179,179,179)" stroke-linejoin="round" d="M 15013,10033 L 15013,9883"/>
 <path fill="none" stroke="rgb(179,179,179)" stroke-linejoin="round" d="M 15013,10033 L 15013,9883"/>
 <path fill="none" stroke="rgb(179,179,179)" stroke-linejoin="round" d="M 15483,10033 L 15483,9883"/>
 <path fill="none" stroke="rgb(179,179,179)" stroke-linejoin="round" d="M 15483,10033 L 15483,9883"/>
 <path fill="none" stroke="rgb(179,179,179)" stroke-linejoin="round" d="M 15952,10033 L 15952,9883"/>
 <path fill="none" stroke="rgb(179,179,179)" stroke-linejoin="round" d="M 15952,10033 L 15952,9883"/>
 <path fill="none" stroke="rgb(179,179,179)" stroke-linejoin="round" d="M 16422,10033 L 16422,9883"/>
 <path fill="none" stroke="rgb(179,179,179)" stroke-linejoin="round" d="M 16422,10033 L 16422,9883"/>
 <path fill="none" stroke="rgb(179,179,179)" stroke-linejoin="round" d="M 16891,10033 L 16891,9883"/>
 <path fill="none" stroke="rgb(179,179,179)" stroke-linejoin="round" d="M 16891,10033 L 16891,9883"/>
 <path fill="none" stroke="rgb(179,179,179)" stroke-linejoin="round" d="M 17361,10033 L 17361,9883"/>
 <path fill="none" stroke="rgb(179,179,179)" stroke-linejoin="round" d="M 17361,10033 L 17361,9883"/>
 <path fill="none" stroke="rgb(179,179,179)" stroke-linejoin="round" d="M 17830,10033 L 17830,9883"/>
 <path fill="none" stroke="rgb(179,179,179)" stroke-linejoin="round" d="M 17830,10033 L 17830,9883"/>
 <path fill="none" stroke="rgb(179,179,179)" stroke-linejoin="round" d="M 18300,10033 L 18300,9883"/>
 <path fill="none" stroke="rgb(179,179,179)" stroke-linejoin="round" d="M 18300,10033 L 18300,9883"/>
 <path fill="none" stroke="rgb(179,179,179)" stroke-linejoin="round" d="M 2340,9883 L 18300,9883"/>
 <path fill="none" stroke="rgb(179,179,179)" stroke-linejoin="round" d="M 2190,9883 L 2340,9883"/>
 <path fill="none" stroke="rgb(179,179,179)" stroke-linejoin="round" d="M 2190,9883 L 2340,9883"/>
 <path fill="none" stroke="rgb(179,179,179)" stroke-linejoin="round" d="M 2190,8959 L 2340,8959"/>
 <path fill="none" stroke="rgb(179,179,179)" stroke-linejoin="round" d="M 2190,8959 L 2340,8959"/>
 <path fill="none" stroke="rgb(179,179,179)" stroke-linejoin="round" d="M 2190,8036 L 2340,8036"/>
 <path fill="none" stroke="rgb(179,179,179)" stroke-linejoin="round" d="M 2190,8036 L 2340,8036"/>
 <path fill="none" stroke="rgb(179,179,179)" stroke-linejoin="round" d="M 2190,7113 L 2340,7113"/>
 <path fill="none" stroke="rgb(179,179,179)" stroke-linejoin="round" d="M 2190,7113 L 2340,7113"/>
 <path fill="none" stroke="rgb(179,179,179)" stroke-linejoin="round" d="M 2190,6190 L 2340,6190"/>
 <path fill="none" stroke="rgb(179,179,179)" stroke-linejoin="round" d="M 2190,6190 L 2340,6190"/>
 <path fill="none" stroke="rgb(179,179,179)" stroke-linejoin="round" d="M 2190,5267 L 2340,5267"/>
 <path fill="none" stroke="rgb(179,179,179)" stroke-linejoin="round" d="M 2190,5267 L 2340,5267"/>
 <path fill="none" stroke="rgb(179,179,179)" stroke-linejoin="round" d="M 2190,4344 L 2340,4344"/>
 <path fill="none" stroke="rgb(179,179,179)" stroke-linejoin="round" d="M 2190,4344 L 2340,4344"/>
 <path fill="none" stroke="rgb(179,179,179)" stroke-linejoin="round" d="M 2190,3421 L 2340,3421"/>
 <path fill="none" stroke="rgb(179,179,179)" stroke-linejoin="round" d="M 2190,3421 L 2340,3421"/>
 <path fill="none" stroke="rgb(179,179,179)" stroke-linejoin="round" d="M 2190,2498 L 2340,2498"/>
 <path fill="none" stroke="rgb(179,179,179)" stroke-linejoin="round" d="M 2190,2498 L 2340,2498"/>
 <path fill="none" stroke="rgb(179,179,179)" stroke-linejoin="round" d="M 2340,9883 L 2340,2498"/>
 <path fill="none" stroke="rgb(255,56,56)" stroke-width="80" stroke-linejoin="round" d="M 2340,3087 L 2809,7760 3278,8153 3748,8359 4217,8480 4687,8569 5156,8633 5626,8700 6095,8742 6564,8786 7034,8825 7503,8857 7973,8877 8442,8911 8912,8930 9381,8951 9851,8967 10320,8982 10788,9003 11258,9016 11727,9033 12197,9047 12666,9059 13136,9070 13605,9085 14075,9092 14544,9100 15013,9115 15483,9122 15952,9130 16422,9136 16891,9144 17361,9153 17830,9162 18300,9166"/>
 <text class="TextShape"><tspan class="TextParagraph" font-family="Liberation Sans, sans-serif" font-size="353px" font-weight="400"><tspan class="TextPosition" x="2247" y="10451"><tspan fill="rgb(0,0,0)" stroke="none">1</tspan></tspan></tspan></text>
 <text class="TextShape"><tspan class="TextParagraph" font-family="Liberation Sans, sans-serif" font-size="353px" font-weight="400"><tspan class="TextPosition" x="2716" y="10451"><tspan fill="rgb(0,0,0)" stroke="none">2</tspan></tspan></tspan></text>
 <text class="TextShape"><tspan class="TextParagraph" font-family="Liberation Sans, sans-serif" font-size="353px" font-weight="400"><tspan class="TextPosition" x="3185" y="10451"><tspan fill="rgb(0,0,0)" stroke="none">3</tspan></tspan></tspan></text>
 <text class="TextShape"><tspan class="TextParagraph" font-family="Liberation Sans, sans-serif" font-size="353px" font-weight="400"><tspan class="TextPosition" x="3655" y="10451"><tspan fill="rgb(0,0,0)" stroke="none">4</tspan></tspan></tspan></text>
 <text class="TextShape"><tspan class="TextParagraph" font-family="Liberation Sans, sans-serif" font-size="353px" font-weight="400"><tspan class="TextPosition" x="4124" y="10451"><tspan fill="rgb(0,0,0)" stroke="none">5</tspan></tspan></tspan></text>
 <text class="TextShape"><tspan class="TextParagraph" font-family="Liberation Sans, sans-serif" font-size="353px" font-weight="400"><tspan class="TextPosition" x="4594" y="10451"><tspan fill="rgb(0,0,0)" stroke="none">6</tspan></tspan></tspan></text>
 <text class="TextShape"><tspan class="TextParagraph" font-family="Liberation Sans, sans-serif" font-size="353px" font-weight="400"><tspan class="TextPosition" x="5063" y="10451"><tspan fill="rgb(0,0,0)" stroke="none">7</tspan></tspan></tspan></text>
 <text class="TextShape"><tspan class="TextParagraph" font-family="Liberation Sans, sans-serif" font-size="353px" font-weight="400"><tspan class="TextPosition" x="5533" y="10451"><tspan fill="rgb(0,0,0)" stroke="none">8</tspan></tspan></tspan></text>
 <text class="TextShape"><tspan class="TextParagraph" font-family="Liberation Sans, sans-serif" font-size="353px" font-weight="400"><tspan class="TextPosition" x="6002" y="10451"><tspan fill="rgb(0,0,0)" stroke="none">9</tspan></tspan></tspan></text>
 <text class="TextShape"><tspan class="TextParagraph" font-family="Liberation Sans, sans-serif" font-size="353px" font-weight="400"><tspan class="TextPosition" x="6379" y="10451"><tspan fill="rgb(0,0,0)" stroke="none">10</tspan></tspan></tspan></text>
 <text class="TextShape"><tspan class="TextParagraph" font-family="Liberation Sans, sans-serif" font-size="353px" font-weight="400"><tspan class="TextPosition" x="6849" y="10451"><tspan fill="rgb(0,0,0)" stroke="none">11</tspan></tspan></tspan></text>
 <text class="TextShape"><tspan class="TextParagraph" font-family="Liberation Sans, sans-serif" font-size="353px" font-weight="400"><tspan class="TextPosition" x="7318" y="10451"><tspan fill="rgb(0,0,0)" stroke="none">12</tspan></tspan></tspan></text>
 <text class="TextShape"><tspan class="TextParagraph" font-family="Liberation Sans, sans-serif" font-size="353px" font-weight="400"><tspan class="TextPosition" x="7788" y="10451"><tspan fill="rgb(0,0,0)" stroke="none">13</tspan></tspan></tspan></text>
 <text class="TextShape"><tspan class="TextParagraph" font-family="Liberation Sans, sans-serif" font-size="353px" font-weight="400"><tspan class="TextPosition" x="8257" y="10451"><tspan fill="rgb(0,0,0)" stroke="none">14</tspan></tspan></tspan></text>
 <text class="TextShape"><tspan class="TextParagraph" font-family="Liberation Sans, sans-serif" font-size="353px" font-weight="400"><tspan class="TextPosition" x="8727" y="10451"><tspan fill="rgb(0,0,0)" stroke="none">15</tspan></tspan></tspan></text>
 <text class="TextShape"><tspan class="TextParagraph" font-family="Liberation Sans, sans-serif" font-size="353px" font-weight="400"><tspan class="TextPosition" x="9196" y="10451"><tspan fill="rgb(0,0,0)" stroke="none">16</tspan></tspan></tspan></text>
 <text class="TextShape"><tspan class="TextParagraph" font-family="Liberation Sans, sans-serif" font-size="353px" font-weight="400"><tspan class="TextPosition" x="9666" y="10451"><tspan fill="rgb(0,0,0)" stroke="none">17</tspan></tspan></tspan></text>
 <text class="TextShape"><tspan class="TextParagraph" font-family="Liberation Sans, sans-serif" font-size="353px" font-weight="400"><tspan class="TextPosition" x="10135" y="10451"><tspan fill="rgb(0,0,0)" stroke="none">18</tspan></tspan></tspan></text>
 <text class="TextShape"><tspan class="TextParagraph" font-family="Liberation Sans, sans-serif" font-size="353px" font-weight="400"><tspan class="TextPosition" x="10604" y="10451"><tspan fill="rgb(0,0,0)" stroke="none">19</tspan></tspan></tspan></text>
 <text class="TextShape"><tspan class="TextParagraph" font-family="Liberation Sans, sans-serif" font-size="353px" font-weight="400"><tspan class="TextPosition" x="11074" y="10451"><tspan fill="rgb(0,0,0)" stroke="none">20</tspan></tspan></tspan></text>
 <text class="TextShape"><tspan class="TextParagraph" font-family="Liberation Sans, sans-serif" font-size="353px" font-weight="400"><tspan class="TextPosition" x="11543" y="10451"><tspan fill="rgb(0,0,0)" stroke="none">21</tspan></tspan></tspan></text>
 <text class="TextShape"><tspan class="TextParagraph" font-family="Liberation Sans, sans-serif" font-size="353px" font-weight="400"><tspan class="TextPosition" x="12013" y="10451"><tspan fill="rgb(0,0,0)" stroke="none">22</tspan></tspan></tspan></text>
 <text class="TextShape"><tspan class="TextParagraph" font-family="Liberation Sans, sans-serif" font-size="353px" font-weight="400"><tspan class="TextPosition" x="12482" y="10451"><tspan fill="rgb(0,0,0)" stroke="none">23</tspan></tspan></tspan></text>
 <text class="TextShape"><tspan class="TextParagraph" font-family="Liberation Sans, sans-serif" font-size="353px" font-weight="400"><tspan class="TextPosition" x="12952" y="10451"><tspan fill="rgb(0,0,0)" stroke="none">24</tspan></tspan></tspan></text>
 <text class="TextShape"><tspan class="TextParagraph" font-family="Liberation Sans, sans-serif" font-size="353px" font-weight="400"><tspan class="TextPosition" x="13421" y="10451"><tspan fill="rgb(0,0,0)" stroke="none">25</tspan></tspan></tspan></text>
 <text class="TextShape"><tspan class="TextParagraph" font-family="Liberation Sans, sans-serif" font-size="353px" font-weight="400"><tspan class="TextPosition" x="13891" y="10451"><tspan fill="rgb(0,0,0)" stroke="none">26</tspan></tspan></tspan></text>
 <text class="TextShape"><tspan class="TextParagraph" font-family="Liberation Sans, sans-serif" font-size="353px" font-weight="400"><tspan class="TextPosition" x="14360" y="10451"><tspan fill="rgb(0,0,0)" stroke="none">27</tspan></tspan></tspan></text>
 <text class="TextShape"><tspan class="TextParagraph" font-family="Liberation Sans, sans-serif" font-size="353px" font-weight="400"><tspan class="TextPosition" x="14829" y="10451"><tspan fill="rgb(0,0,0)" stroke="none">28</tspan></tspan></tspan></text>
 <text class="TextShape"><tspan class="TextParagraph" font-family="Liberation Sans, sans-serif" font-size="353px" font-weight="400"><tspan class="TextPosition" x="15299" y="10451"><tspan fill="rgb(0,0,0)" stroke="none">29</tspan></tspan></tspan></text>
 <text class="TextShape"><tspan class="TextParagraph" font-family="Liberation Sans, sans-serif" font-size="353px" font-weight="400"><tspan class="TextPosition" x="15768" y="10451"><tspan fill="rgb(0,0,0)" stroke="none">30</tspan></tspan></tspan></text>
 <text class="TextShape"><tspan class="TextParagraph" font-family="Liberation Sans, sans-serif" font-size="353px" font-weight="400"><tspan class="TextPosition" x="16238" y="10451"><tspan fill="rgb(0,0,0)" stroke="none">31</tspan></tspan></tspan></text>
 <text class="TextShape"><tspan class="TextParagraph" font-family="Liberation Sans, sans-serif" font-size="353px" font-weight="400"><tspan class="TextPosition" x="16707" y="10451"><tspan fill="rgb(0,0,0)" stroke="none">32</tspan></tspan></tspan></text>
 <text class="TextShape"><tspan class="TextParagraph" font-family="Liberation Sans, sans-serif" font-size="353px" font-weight="400"><tspan class="TextPosition" x="17177" y="10451"><tspan fill="rgb(0,0,0)" stroke="none">33</tspan></tspan></tspan></text>
 <text class="TextShape"><tspan class="TextParagraph" font-family="Liberation Sans, sans-serif" font-size="353px" font-weight="400"><tspan class="TextPosition" x="17646" y="10451"><tspan fill="rgb(0,0,0)" stroke="none">34</tspan></tspan></tspan></text>
 <text class="TextShape"><tspan class="TextParagraph" font-family="Liberation Sans, sans-serif" font-size="353px" font-weight="400"><tspan class="TextPosition" x="18116" y="10451"><tspan fill="rgb(0,0,0)" stroke="none">35</tspan></tspan></tspan></text>
 <text class="TextShape"><tspan class="TextParagraph" font-family="Liberation Sans, sans-serif" font-size="353px" font-weight="400"><tspan class="TextPosition" x="1905" y="10004"><tspan fill="rgb(0,0,0)" stroke="none">0</tspan></tspan></tspan></text>
 <text class="TextShape"><tspan class="TextParagraph" font-family="Liberation Sans, sans-serif" font-size="353px" font-weight="400"><tspan class="TextPosition" x="1429" y="9080"><tspan fill="rgb(0,0,0)" stroke="none">0.02</tspan></tspan></tspan></text>
 <text class="TextShape"><tspan class="TextParagraph" font-family="Liberation Sans, sans-serif" font-size="353px" font-weight="400"><tspan class="TextPosition" x="1429" y="8157"><tspan fill="rgb(0,0,0)" stroke="none">0.04</tspan></tspan></tspan></text>
 <text class="TextShape"><tspan class="TextParagraph" font-family="Liberation Sans, sans-serif" font-size="353px" font-weight="400"><tspan class="TextPosition" x="1429" y="7234"><tspan fill="rgb(0,0,0)" stroke="none">0.06</tspan></tspan></tspan></text>
 <text class="TextShape"><tspan class="TextParagraph" font-family="Liberation Sans, sans-serif" font-size="353px" font-weight="400"><tspan class="TextPosition" x="1429" y="6311"><tspan fill="rgb(0,0,0)" stroke="none">0.08</tspan></tspan></tspan></text>
 <text class="TextShape"><tspan class="TextParagraph" font-family="Liberation Sans, sans-serif" font-size="353px" font-weight="400"><tspan class="TextPosition" x="1614" y="5387"><tspan fill="rgb(0,0,0)" stroke="none">0.1</tspan></tspan></tspan></text>
 <text class="TextShape"><tspan class="TextParagraph" font-family="Liberation Sans, sans-serif" font-size="353px" font-weight="400"><tspan class="TextPosition" x="1429" y="4464"><tspan fill="rgb(0,0,0)" stroke="none">0.12</tspan></tspan></tspan></text>
 <text class="TextShape"><tspan class="TextParagraph" font-family="Liberation Sans, sans-serif" font-size="353px" font-weight="400"><tspan class="TextPosition" x="1429" y="3541"><tspan fill="rgb(0,0,0)" stroke="none">0.14</tspan></tspan></tspan></text>
 <text class="TextShape"><tspan class="TextParagraph" font-family="Liberation Sans, sans-serif" font-size="353px" font-weight="400"><tspan class="TextPosition" x="1429" y="2618"><tspan fill="rgb(0,0,0)" stroke="none">0.16</tspan></tspan></tspan></text>
 <text class="TextShape"><tspan class="TextParagraph" font-family="Liberation Sans, sans-serif" font-size="459px" font-weight="400"><tspan class="TextPosition" x="9106" y="905"><tspan fill="rgb(0,0,0)" stroke="none">Training Loss</tspan></tspan></tspan></text>
 <text class="TextShape"><tspan class="TextParagraph" font-family="Liberation Sans, sans-serif" font-size="388px" font-weight="400"><tspan class="TextPosition" x="7994" y="1869"><tspan fill="rgb(0,0,0)" stroke="none">Rubix ML Softmax Classifier</tspan></tspan></tspan></text>
 <path fill="none" stroke="rgb(255,56,56)" stroke-width="80" stroke-linejoin="round" d="M 19020,5872 L 19820,5872"/>
 <text class="TextShape"><tspan class="TextParagraph" font-family="Liberation Sans, sans-serif" font-size="353px" font-weight="400"><tspan class="TextPosition" x="19920" y="5991"><tspan fill="rgb(0,0,0)" stroke="none">loss</tspan></tspan></tspan></text>
 <text class="TextShape"><tspan class="TextParagraph" font-family="Liberation Sans, sans-serif" font-size="318px" font-weight="400"><tspan class="TextPosition" x="9495" y="11152"><tspan fill="rgb(0,0,0)" stroke="none">Epoch</tspan></tspan></tspan></text>
 <text class="TextShape" transform="rotate(-90 837 7434)"><tspan class="TextParagraph" font-family="Liberation Sans, sans-serif" font-size="318px" font-weight="400"><tspan class="TextPosition" x="837" y="7434"><tspan fill="rgb(0,0,0)" stroke="none">Cross Entropy</tspan></tspan></tspan></text>
</svg>